Coordinates
version=1
nRows=4
nColumns=63
inDegrees=yes

Units are S.I. units (second, meters, Newtons, ...)
If the header above contains a line with 'inDegrees', this indicates whether rotational values are in degrees (yes) or radians (no).

endheader
time	pelvis_tilt	pelvis_list	pelvis_rotation	pelvis_tx	pelvis_ty	pelvis_tz	hip_flexion_r	hip_adduction_r	hip_rotation_r	knee_angle_r	knee_angle_r_beta	ankle_angle_r	subtalar_angle_r	mtp_angle_r	hip_flexion_l	hip_adduction_l	hip_rotation_l	knee_angle_l	knee_angle_l_beta	ankle_angle_l	subtalar_angle_l	mtp_angle_l	L5_S1_Flex_Ext	L5_S1_Lat_Bending	L5_S1_axial_rotation	L4_L5_Flex_Ext	L4_L5_Lat_Bending	L4_L5_axial_rotation	L3_L4_Flex_Ext	L3_L4_Lat_Bending	L3_L4_axial_rotation	L2_L3_Flex_Ext	L2_L3_Lat_Bending	L2_L3_axial_rotation	L1_L2_Flex_Ext	L1_L2_Lat_Bending	L1_L2_axial_rotation	L1_T12_Flex_Ext	L1_T12_Lat_Bending	L1_T12_axial_rotation	Abs_r3	Abs_r2	Abs_r1	Abs_t1	Abs_t2	neck_flexion	neck_bending	neck_rotation	arm_flex_r	arm_add_r	arm_rot_r	elbow_flex_r	pro_sup_r	wrist_flex_r	wrist_dev_r	arm_flex_l	arm_add_l	arm_rot_l	elbow_flex_l	pro_sup_l	wrist_flex_l	wrist_dev_l
      3.00000000	     -0.61611622	     -5.72484361	     94.41043675	      0.21435673	      0.99830650	      0.50162753	     -3.70168641	      0.68275798	    -12.18983703	      5.68841016	      0.09928149	     28.95170822	      5.94783788	      0.00000000	     -3.70132257	      0.68648800	      9.30642119	      1.84733717	      0.03224212	     27.48620076	    -10.87207394	      0.00000000	      0.00010418	     -0.10979472	     -0.78038195	      0.00019347	     -0.14602698	     -0.82915582	      0.00017115	     -0.26695488	     -0.82915582	      0.00011906	     -0.26695488	     -0.68283421	      0.00009674	     -0.22389339	     -0.63406034	      0.00005953	     -0.17007202	     -0.58528646	      0.00074413	     -1.24201984	     -4.34025031	      0.00000000	      0.00000000	     20.57046542	      4.16992460	      8.91989686	     13.39197322	     -4.96068540	     82.73000206	     34.07361780	     37.85877741	      5.13147072	      0.47312251	      5.49751135	     -7.91606169	     45.23339975	     44.43752575	     86.17195616	     12.11840887	      3.44898089
      3.01694915	     -0.48787161	     -5.66791548	     94.47366326	      0.21431292	      0.99860493	      0.50170269	     -3.74612545	      0.86978346	    -11.95211802	      5.62032008	      0.09809309	     28.68574574	      5.37781587	      0.00000000	     -3.68614594	      0.52196252	      8.01823988	      1.97265009	      0.03442924	     27.87186594	     -9.02310505	      0.00000000	      0.00062418	     -0.08971349	     -0.79986651	      0.00115916	     -0.11931894	     -0.84985817	      0.00102546	     -0.21812937	     -0.84985817	      0.00071337	     -0.21812937	     -0.69988320	      0.00057961	     -0.18294374	     -0.64989154	      0.00035666	     -0.13896619	     -0.59989988	      0.00445844	     -1.01485689	     -4.44861758	      0.00000000	      0.00000000	     20.50137174	      3.95016019	      8.86753142	     13.35907212	     -5.02920634	     82.57207028	     34.11268138	     38.03629917	      5.17163868	      0.52745376	      5.34779828	     -7.65973472	     44.59249464	     44.21856977	     86.44237137	     12.46375150	      3.49700589
      3.03389831	     -0.37894516	     -5.57850118	     94.82072191	      0.21393474	      0.99891308	      0.50184576	     -3.85007020	      1.08736032	    -11.54050432	      5.50466738	      0.09607457	     28.28122290	      4.13797521	      0.00000000	     -3.78974884	      0.39109412	      9.61492740	      1.85779709	      0.03242468	     27.28113979	    -10.84123951	      0.00000000	     -0.00304265	     -0.07321128	     -0.86861313	     -0.00565050	     -0.09737100	     -0.92290145	     -0.00499876	     -0.17800590	     -0.92290145	     -0.00347744	     -0.17800590	     -0.76003649	     -0.00282540	     -0.14929243	     -0.70574817	     -0.00173857	     -0.11340427	     -0.65145985	     -0.02173332	     -0.82818059	     -4.83096565	      0.00000000	      0.00000000	     20.38547438	      3.84119720	      8.84888462	     13.48699406	     -5.08644583	     83.20984495	     34.22216496	     36.76659412	      4.87508071	      0.36268132	      5.26809947	     -7.50299150	     44.29014502	     44.13128942	     86.52894764	     12.38285168	      3.76328113
      3.05084746	     -0.26831854	     -5.41630715	     94.67135324	      0.21421199	      0.99938550	      0.50209169	     -3.96656461	      1.22643209	    -11.64001029	      5.43689952	      0.09489180	     28.08288929	      4.26541681	      0.00000000	     -3.89614239	      0.24625398	      7.71593309	      1.95487430	      0.03411899	     27.73652325	     -8.48145247	      0.00000000	     -0.02100535	     -0.05404091	     -0.81738541	     -0.03900904	     -0.07187441	     -0.86847200	     -0.03450969	     -0.13139506	     -0.86847200	     -0.02400702	     -0.13139506	     -0.71521223	     -0.01950557	     -0.11020022	     -0.66412565	     -0.01200246	     -0.08370937	     -0.61303906	     -0.15003913	     -0.61132155	     -4.54605244	      0.00000000	      0.00000000	     20.27036420	      3.64582783	      8.74301392	     13.32845737	     -5.20803865	     82.56007741	     34.35377154	     37.40006280	      4.56315885	      0.50578825	      5.51903236	     -7.45286158	     45.10223545	     43.99686334	     86.00611014	     11.50285539	      3.79951487
